<?xml version="1.0" standalone="no"?>
<!DOCTYPE svg PUBLIC "-//W3C//DTD SVG 20010904//EN"
 "http://www.w3.org/TR/2001/REC-SVG-20010904/DTD/svg10.dtd">
<svg version="1.0" xmlns="http://www.w3.org/2000/svg"
 width="1259.000000pt" height="1259.000000pt" viewBox="0 0 1259.000000 1259.000000"
 preserveAspectRatio="xMidYMid meet">
<metadata>
Created by potrace 1.11, written by Peter Selinger 2001-2013
</metadata>
<g transform="translate(0.000000,1259.000000) scale(0.100000,-0.100000)"
fill="#000000" stroke="none">
<path d="M5973 11960 c-37 -15 -45 -47 -48 -183 -2 -71 -7 -148 -10 -171 -4
-22 -9 -54 -11 -71 -53 -359 -212 -710 -451 -991 -37 -44 -84 -100 -103 -124
-49 -61 -232 -283 -245 -296 -5 -6 -35 -39 -65 -74 -30 -35 -64 -73 -75 -86
-11 -12 -45 -50 -77 -85 -63 -72 -68 -77 -193 -214 -49 -54 -115 -125 -145
-159 -30 -33 -62 -67 -70 -76 -72 -75 -429 -466 -644 -705 -68 -75 -154 -167
-227 -244 -8 -9 -40 -45 -70 -81 -30 -36 -56 -67 -59 -70 -3 -3 -32 -41 -65
-85 -350 -469 -578 -994 -674 -1550 -6 -33 -13 -73 -16 -90 -2 -16 -8 -57 -11
-90 -3 -33 -10 -91 -14 -130 -9 -74 -6 -632 3 -675 3 -14 8 -52 11 -85 7 -65
7 -67 30 -195 108 -605 360 -1149 760 -1645 78 -98 322 -348 421 -434 l49 -43
26 29 c14 16 106 132 205 257 99 125 256 323 348 439 93 117 181 227 195 246
37 47 200 252 220 276 10 11 84 106 167 210 82 105 157 199 167 210 21 26 254
318 473 595 93 118 174 220 180 226 5 6 55 68 110 138 109 138 147 166 225
166 63 0 118 -31 171 -97 83 -105 443 -558 474 -597 17 -21 68 -86 115 -145
47 -58 180 -225 295 -370 116 -146 336 -423 490 -617 154 -193 390 -489 523
-658 l244 -306 31 22 c66 47 367 358 465 480 446 560 707 1199 779 1913 16
163 9 736 -12 910 -8 62 -15 121 -21 170 -53 428 -192 940 -372 1370 -241 575
-612 1151 -1031 1600 -95 102 -285 288 -364 356 -71 62 -111 74 -149 45 -38
-29 -40 -61 -7 -154 36 -103 83 -297 98 -402 19 -137 22 -166 26 -276 5 -158
-24 -250 -108 -341 -157 -171 -431 -166 -582 10 -75 87 -102 177 -105 353 -8
447 -108 912 -282 1314 -183 420 -423 783 -727 1095 -192 197 -209 209 -268
185z"/>
</g>
</svg>
