<?xml version="1.0" encoding="iso-8859-1"?>
<!-- Generator: Adobe Illustrator 19.0.0, SVG Export Plug-In . SVG Version: 6.00 Build 0)  -->
<svg xmlns="http://www.w3.org/2000/svg" xmlns:xlink="http://www.w3.org/1999/xlink" version="1.1" id="Capa_1" x="0px" y="0px" viewBox="0 0 512 512" style="enable-background:new 0 0 512 512;" xml:space="preserve" width="512px" height="512px">
<g>
	<g>
		<circle cx="120.654" cy="159.212" r="31.566" fill="#0080c0"/>
	</g>
</g>
<g>
	<g>
		<path d="M101.649,405.953l-10.85-70.167H56.324l11.656,75.374c1.44,9.312,10.158,15.668,19.437,14.231    C96.716,423.952,103.087,415.249,101.649,405.953z" fill="#0080c0"/>
	</g>
</g>
<g>
	<g>
		<path d="M146.637,335.786l0.649,0.377l-10.793,69.79c-1.588,10.269,6.335,19.64,16.856,19.64c8.258,0,15.512-6.018,16.813-14.434    l11.656-75.373H146.637z" fill="#0080c0"/>
	</g>
</g>
<g>
	<g>
		<path d="M245.326,304.389c0-9.638-7.813-17.452-17.452-17.452h-66.094v-76.269c1.006-0.814-2.423,2.573,45.474-45.625    c2.568-2.584,4.124-6.003,4.388-9.637l5.087-70.269c0.607-8.39-5.701-15.683-14.092-16.29c-8.392-0.609-15.683,5.701-16.29,14.092    l-4.679,64.638l-15.233,15.329c-1.901,23.792-21.892,42.257-45.784,42.257c-16.159,0-30.385-8.392-38.578-21.038    c-11.639,2.017-21.56,9.81-26.168,21.017c-2.816,6.848-22.515,54.755-25.667,62.421c-3.017,7.337,0.098,15.775,7.213,19.376    H17.452C7.93,286.937,0,294.661,0,304.389c0,9.153,7.05,16.646,16.014,17.379v110.709c0,6.986,5.663,12.649,12.649,12.649    c6.986,0,12.649-5.663,12.649-12.649V321.84c14.758,0,158.783,0,161.777,0v110.637c0,6.986,5.663,12.649,12.649,12.649    c6.986,0,12.649-5.663,12.649-12.649V321.84h-0.51C237.512,321.84,245.326,314.026,245.326,304.389z M132.103,286.937h-19.567    c4.961-2.511,8.369-7.644,8.369-13.584c0-8.412-6.82-15.231-15.231-15.231H67.053c16.657-40.508,10.788-26.237,14.053-34.176    v19.689h24.568c16.412,0,29.718,13.305,29.718,29.718C135.392,278.249,134.201,282.865,132.103,286.937z" fill="#0080c0"/>
	</g>
</g>
<g>
	<g>
		<path d="M482.017,247.646c-4.305-10.736-13.841-32.319-22.085-49.277c-5.782-11.89-18.063-19.573-31.289-19.573    c-6.706,0-65.646,0-72.827,0l-40.999-33.026l-9.868-65.917c-1.245-8.318-9.004-14.051-17.318-12.808    c-8.319,1.245-14.054,8.999-12.808,17.318l10.747,71.793c0.566,3.779,2.532,7.208,5.508,9.607l39.454,31.782    c9.265,0,79.071,0,88.506,0c12.536,0,22.735,10.199,22.735,22.735v11.124c2.435,5.361,4.519,10.072,6.233,14.01l-6.233,2.746    c0,33.709,0.048,31.691-0.123,33.34l32.366-14.257C481.527,263.934,485.066,255.267,482.017,247.646z" fill="#0080c0"/>
	</g>
</g>
<g>
	<g>
		<circle cx="389.238" cy="138.123" r="31.566" fill="#0080c0"/>
	</g>
</g>
<g>
	<g>
		<path d="M370.242,405.953l-10.856-70.193h-34.474l11.66,75.399c1.301,8.416,8.555,14.434,16.813,14.434    c0.866,0,1.743-0.065,2.625-0.202C365.308,423.952,371.68,415.249,370.242,405.953z" fill="#0080c0"/>
	</g>
</g>
<g>
	<g>
		<path d="M415.185,335.76l0.692,0.402l-10.793,69.79c-1.438,9.298,4.934,18,14.231,19.438c0.882,0.137,1.758,0.202,2.624,0.202    c8.258,0,15.512-6.018,16.813-14.434l11.66-75.399H415.185z" fill="#0080c0"/>
	</g>
</g>
<g>
	<g>
		<path d="M494.548,286.936c-8.52,0-64.454,0-72.535,0c3.144-1.2,5.38-4.235,5.38-7.8v-58.857c0-4.614-3.741-8.355-8.355-8.355    H317.695c-4.615,0-8.355,3.741-8.355,8.355v58.857c0,3.565,2.237,6.6,5.38,7.8c-10.659,0-19.972,0-30.594,0    c-9.639,0-17.452,7.813-17.452,17.452c0,9.153,7.05,16.646,16.014,17.379v110.71c0,6.986,5.663,12.649,12.649,12.649    s12.649-5.663,12.649-12.649l-0.058-110.637c7.576,0,154.745,0,160.83,0v110.637c0,6.986,5.663,12.649,12.649,12.649    s12.649-5.663,12.649-12.649V321.84c10.812,0,17.946-8.316,17.946-17.452C512,294.749,504.187,286.936,494.548,286.936z     M368.366,261.302c-6.403,0-11.595-5.191-11.595-11.595s5.191-11.595,11.595-11.595s11.595,5.191,11.595,11.595    S374.771,261.302,368.366,261.302z" fill="#0080c0"/>
	</g>
</g>
<g>
</g>
<g>
</g>
<g>
</g>
<g>
</g>
<g>
</g>
<g>
</g>
<g>
</g>
<g>
</g>
<g>
</g>
<g>
</g>
<g>
</g>
<g>
</g>
<g>
</g>
<g>
</g>
<g>
</g>
</svg>
