<?xml version="1.0" encoding="iso-8859-1"?>
<!-- Generator: Adobe Illustrator 19.0.0, SVG Export Plug-In . SVG Version: 6.00 Build 0)  -->
<svg xmlns="http://www.w3.org/2000/svg" xmlns:xlink="http://www.w3.org/1999/xlink" version="1.1" id="Capa_1" x="0px" y="0px" viewBox="0 0 497.694 497.694" style="enable-background:new 0 0 497.694 497.694;" xml:space="preserve" width="512px" height="512px">
<g>
	<g>
		<g>
			<path d="M290.259,42.918c0-23.341-18.071-42.165-41.412-42.165s-41.412,18.824-41.412,42.165     c0,23.341,18.071,42.165,41.412,42.165S290.259,66.259,290.259,42.918z M248.847,70.024c-15.059,0-26.353-12.047-26.353-27.106     c0-15.059,11.294-27.106,26.353-27.106S275.2,27.859,275.2,42.918C275.2,57.976,263.906,70.024,248.847,70.024z" fill="#0080c0"/>
			<path d="M459.671,85.082h-57.977c-21.082,0-37.647,18.824-37.647,42.918v99.388c0,4.518,3.012,7.529,7.529,7.529h18.071v67.765     c0,10.541,8.282,18.823,18.824,18.823H454.4c10.541,0,18.824-8.282,18.824-18.823v-67.765h16.565     c4.518,0,7.529-3.012,7.529-7.529V127.247C497.318,103.906,480,85.082,459.671,85.082z M482.259,219.106h-10.541v-48.188     c0-4.518-3.012-7.529-7.529-7.529s-7.529,3.012-7.529,7.529v131.012c0,2.259-1.506,3.765-3.765,3.765h-15.059V230.4     c0-4.518-3.012-7.529-7.529-7.529s-7.529,3.012-7.529,7.529v76.047h-15.059c-2.259,0-3.765-1.506-3.765-3.765V171.671     c0-4.518-3.012-7.529-7.529-7.529s-7.529,3.012-7.529,7.529v48.188h-10.541v-92.612c0-15.059,10.541-27.859,22.588-27.859h58.729     c12.8,0,22.588,12.047,22.588,27.859V219.106z" fill="#0080c0"/>
			<path d="M430.306,83.576c23.341,0,41.412-18.824,41.412-42.165S453.647,0,430.306,0s-41.412,18.824-41.412,42.165     C388.894,65.506,406.965,83.576,430.306,83.576z M430.306,15.059c15.059,0,26.353,12.047,26.353,27.106     c0,15.059-12.047,27.106-26.353,27.106s-26.353-12.047-26.353-27.106C403.953,27.106,415.247,15.059,430.306,15.059z" fill="#0080c0"/>
			<path d="M380.612,335.059l-21.835-1.506c-3.012-12.8-8.282-25.6-15.059-36.894l14.306-16.565c2.259-3.012,2.259-7.529,0-10.541     l-21.835-21.082c-3.012-3.012-7.529-3.012-10.541,0l-16.565,14.306c-6.024-3.765-12.8-6.776-19.576-9.788v-17.318h18.071     c4.518,0,7.529-3.012,7.529-7.529V128c0-23.341-17.318-42.918-37.647-42.918h-28.612h-29.365     c-21.082,0-37.647,18.824-37.647,42.918v99.388c0,4.518,3.012,7.529,7.529,7.529h18.071v17.318     c-6.776,3.012-12.8,6.023-19.576,9.788l-16.565-13.553c-3.012-2.259-7.529-2.259-10.541,0l-21.835,21.835     c-3.012,3.012-3.012,7.529,0,10.541l14.306,16.565c-7.529,11.294-12.8,24.094-15.059,36.894l-21.835,1.506     c-3.765,0-6.776,3.765-6.776,7.529v30.118c0,3.765,3.012,7.529,6.776,7.529l21.835,1.506c3.012,12.8,8.282,25.6,15.059,36.894     l-14.306,16.565c-2.259,3.012-2.259,7.529,0,10.541l21.835,21.835c3.012,3.012,7.529,3.012,10.541,0l16.565-14.306     c11.294,7.529,24.094,12.047,36.894,15.059l1.506,21.835c0,3.765,3.765,6.776,7.529,6.776h30.118     c3.765,0,7.529-3.012,7.529-6.776l1.506-21.835c12.8-3.012,25.6-8.282,36.894-15.059l16.565,14.306     c3.012,2.259,7.529,2.259,10.541,0l21.835-21.835c3.012-3.012,3.012-7.529,0-10.541l-14.306-16.565     c7.529-11.294,12.047-24.094,15.059-36.894l21.835-1.506c3.765,0,6.776-3.765,6.776-7.529v-30.118     C388.141,338.824,385.129,335.059,380.612,335.059z M196.894,220.612V128c0-15.059,10.541-27.859,22.588-27.859h57.976     c12.8,0,22.588,12.047,22.588,27.859v91.859h-10.541v-48.188c0-4.518-3.012-7.529-7.529-7.529s-7.529,3.012-7.529,7.529v55.718     v21.082c-0.753,0-1.506-0.753-2.259-0.753l-0.753-21.835c0-3.765-3.765-6.776-7.529-6.776h-30.118     c-3.765,0-7.529,3.012-7.529,6.776l-1.506,21.835c-0.753,0-1.506,0.753-2.259,0.753v-20.329v-55.718     c0-4.518-3.012-7.529-7.529-7.529c-4.518,0-7.529,3.012-7.529,7.529v48.188H196.894z M352.753,367.435     c-3.765,0-6.024,3.012-6.776,6.023c-2.259,15.059-8.282,29.365-17.318,41.412c-2.259,3.012-1.506,6.776,0.753,9.035     l13.553,15.059l-11.294,11.294l-15.059-13.553c-2.259-2.259-6.776-2.259-9.035-0.753c-12.047,9.035-26.353,15.059-41.412,17.318     c-3.765,0.753-6.024,3.765-6.024,6.776l-3.012,21.835h-16.565l-1.506-20.329c0-3.765-3.012-6.776-6.023-6.776     c-15.059-2.259-29.365-8.282-41.412-17.318c-3.012-2.259-6.776-1.506-9.035,0.753l-15.059,13.553l-11.294-11.294l13.553-15.059     c2.259-3.012,2.259-6.776,0.753-9.035c-9.035-12.047-15.059-26.353-17.318-41.412c-0.753-3.765-3.765-6.023-6.776-6.023     l-20.329-1.506v-16.565l20.329-1.506c3.765,0,6.024-3.012,6.776-6.023c2.259-15.059,8.282-29.365,17.318-41.412     c2.259-3.012,1.506-6.776-0.753-9.035l-13.553-15.059l11.294-11.294l15.059,13.553c2.259,2.259,6.776,2.259,9.035,0.753     c12.047-9.035,26.353-15.059,41.412-17.318c3.765-0.753,6.023-3.765,6.023-6.776l1.506-20.329h16.565l1.506,20.329     c0,3.765,3.012,6.023,6.024,6.776c15.059,2.259,29.365,8.282,41.412,17.318c3.012,2.259,6.776,1.506,9.035-0.753l15.059-13.553     l11.294,11.294l-13.553,15.059c-2.259,3.012-2.259,6.776-0.753,9.035c9.035,12.047,15.059,26.353,17.318,41.412     c0.753,3.765,3.765,6.023,6.776,6.023l20.329,1.506v15.059h1.506L352.753,367.435z" fill="#0080c0"/>
			<path d="M248.847,289.882c-37.647,0-68.518,30.871-68.518,68.518c0,37.647,30.871,68.518,68.518,68.518     s68.518-30.871,68.518-68.518C317.365,320.753,286.494,289.882,248.847,289.882z M248.847,411.106     c-29.365,0-53.459-24.094-53.459-53.459s24.094-53.459,53.459-53.459c29.365,0,53.459,24.094,53.459,53.459     S278.212,411.106,248.847,411.106z" fill="#0080c0"/>
			<path d="M109.553,236.424h17.318c4.518,0,7.529-3.012,7.529-7.529v-99.388c0-23.341-17.318-42.918-37.647-42.918H38.024     c-21.082,0-37.647,18.823-37.647,42.918v99.388c0,4.518,3.012,7.529,7.529,7.529h18.071v67.765     c0,10.541,8.282,18.824,18.824,18.824h45.929c10.541,0,18.824-8.282,18.824-18.824V236.424z M100.518,165.647     c-4.518,0-7.529,3.012-7.529,7.529v131.012h0.753c0,2.259-1.506,3.765-3.765,3.765H74.918v-76.047     c0-4.518-3.012-7.529-7.529-7.529c-4.518,0-7.529,3.012-7.529,7.529v76.047H44.8c-2.259,0-3.765-1.506-3.765-3.765V173.176     c0-4.518-3.012-7.529-7.529-7.529s-7.529,3.012-7.529,7.529v48.188H15.435v-91.859c0-15.059,10.541-27.859,22.588-27.859H96     c12.8,0,22.588,12.047,22.588,27.859v91.859h-10.541v-48.188C108.047,168.659,105.035,165.647,100.518,165.647z" fill="#0080c0"/>
			<path d="M67.388,85.835c23.341,0,41.412-18.823,41.412-42.165S90.729,2.259,67.388,2.259c-23.341,0-41.412,18.824-41.412,41.412     C25.977,66.259,44.047,85.835,67.388,85.835z M67.388,17.318c15.059,0,26.353,12.047,26.353,27.106S81.694,71.529,67.388,71.529     c-14.306,0-26.353-12.8-26.353-27.859S52.329,17.318,67.388,17.318z" fill="#0080c0"/>
		</g>
	</g>
</g>
<g>
</g>
<g>
</g>
<g>
</g>
<g>
</g>
<g>
</g>
<g>
</g>
<g>
</g>
<g>
</g>
<g>
</g>
<g>
</g>
<g>
</g>
<g>
</g>
<g>
</g>
<g>
</g>
<g>
</g>
</svg>
